<svg width="244" height="58" viewBox="0 0 244 58" fill="none" xmlns="http://www.w3.org/2000/svg">
<path d="M0.772 1.4H11.458V56H0.772V1.4ZM43.8402 56V34.784C43.8402 31.196 43.5022 28.648 42.8262 27.14C42.1502 25.632 40.7462 24.878 38.6142 24.878C36.8462 24.878 35.4162 25.372 34.3242 26.36C33.2322 27.296 32.4002 28.518 31.8282 30.026V56H21.6882V17H29.5662L30.7362 22.148H31.0482C32.2442 20.484 33.7522 19.028 35.5722 17.78C37.4442 16.532 39.8362 15.908 42.7482 15.908C45.2442 15.908 47.2722 16.428 48.8322 17.468C50.4442 18.456 51.6922 20.146 52.5762 22.538C53.7722 20.51 55.3062 18.898 57.1782 17.702C59.0502 16.506 61.3122 15.908 63.9642 15.908C66.1482 15.908 67.9942 16.168 69.5022 16.688C71.0622 17.208 72.3102 18.118 73.2462 19.418C74.2342 20.666 74.9622 22.356 75.4302 24.488C75.8982 26.62 76.1322 29.324 76.1322 32.6V56H65.9922V34.082C65.9922 31.014 65.6542 28.726 64.9782 27.218C64.3542 25.658 62.9242 24.878 60.6882 24.878C58.8682 24.878 57.4122 25.372 56.3202 26.36C55.2802 27.348 54.5002 28.7 53.9802 30.416V56H43.8402ZM84.2198 19.262C86.2998 18.326 88.7698 17.598 91.6298 17.078C94.4898 16.506 97.4798 16.22 100.6 16.22C103.304 16.22 105.566 16.558 107.386 17.234C109.206 17.858 110.636 18.768 111.676 19.964C112.768 21.16 113.522 22.59 113.938 24.254C114.406 25.918 114.64 27.79 114.64 29.87C114.64 32.158 114.562 34.472 114.406 36.812C114.25 39.1 114.146 41.362 114.094 43.598C114.094 45.834 114.172 48.018 114.328 50.15C114.484 52.23 114.874 54.206 115.498 56.078H107.23L105.592 50.696H105.202C104.162 52.308 102.706 53.712 100.834 54.908C99.0138 56.052 96.6478 56.624 93.7358 56.624C91.9158 56.624 90.2778 56.364 88.8218 55.844C87.3658 55.272 86.1178 54.492 85.0778 53.504C84.0378 52.464 83.2318 51.268 82.6598 49.916C82.0878 48.512 81.8018 46.952 81.8018 45.236C81.8018 42.844 82.3218 40.842 83.3618 39.23C84.4538 37.566 85.9878 36.24 87.9638 35.252C89.9918 34.212 92.3838 33.51 95.1398 33.146C97.9478 32.73 101.068 32.6 104.5 32.756C104.864 29.844 104.656 27.764 103.876 26.516C103.096 25.216 101.354 24.566 98.6498 24.566C96.6218 24.566 94.4638 24.774 92.1758 25.19C89.9398 25.606 88.0938 26.152 86.6378 26.828L84.2198 19.262ZM97.0898 48.278C99.1178 48.278 100.73 47.836 101.926 46.952C103.122 46.016 104.006 45.028 104.578 43.988V38.918C102.966 38.762 101.406 38.736 99.8978 38.84C98.4418 38.944 97.1418 39.178 95.9978 39.542C94.8538 39.906 93.9438 40.426 93.2678 41.102C92.5918 41.778 92.2538 42.636 92.2538 43.676C92.2538 45.132 92.6698 46.276 93.5018 47.108C94.3858 47.888 95.5818 48.278 97.0898 48.278ZM139.295 45.236C139.295 44.196 138.853 43.364 137.969 42.74C137.085 42.116 135.993 41.544 134.693 41.024C133.393 40.504 131.963 39.984 130.403 39.464C128.843 38.892 127.413 38.138 126.113 37.202C124.813 36.214 123.721 34.992 122.837 33.536C121.953 32.028 121.511 30.104 121.511 27.764C121.511 23.916 122.655 20.978 124.943 18.95C127.231 16.922 130.533 15.908 134.849 15.908C137.813 15.908 140.491 16.22 142.883 16.844C145.275 17.468 147.147 18.17 148.499 18.95L146.237 26.282C145.041 25.814 143.533 25.32 141.713 24.8C139.893 24.28 138.047 24.02 136.175 24.02C133.159 24.02 131.651 25.19 131.651 27.53C131.651 28.466 132.093 29.22 132.977 29.792C133.861 30.364 134.953 30.91 136.253 31.43C137.553 31.898 138.983 32.418 140.543 32.99C142.103 33.562 143.533 34.316 144.833 35.252C146.133 36.136 147.225 37.306 148.109 38.762C148.993 40.218 149.435 42.09 149.435 44.378C149.435 48.33 148.161 51.45 145.613 53.738C143.117 55.974 139.347 57.092 134.303 57.092C131.547 57.092 128.947 56.728 126.503 56C124.111 55.324 122.161 54.518 120.653 53.582L123.461 46.016C124.657 46.692 126.243 47.368 128.219 48.044C130.195 48.668 132.223 48.98 134.303 48.98C135.811 48.98 137.007 48.694 137.891 48.122C138.827 47.55 139.295 46.588 139.295 45.236ZM154.183 36.5C154.183 29.896 155.795 24.826 159.019 21.29C162.243 17.702 166.767 15.908 172.591 15.908C175.711 15.908 178.415 16.402 180.703 17.39C182.991 18.378 184.889 19.782 186.397 21.602C187.905 23.37 189.023 25.528 189.751 28.076C190.531 30.624 190.921 33.432 190.921 36.5C190.921 43.104 189.309 48.2 186.085 51.788C182.913 55.324 178.415 57.092 172.591 57.092C169.471 57.092 166.767 56.598 164.479 55.61C162.191 54.622 160.267 53.244 158.707 51.476C157.199 49.656 156.055 47.472 155.275 44.924C154.547 42.376 154.183 39.568 154.183 36.5ZM164.635 36.5C164.635 38.216 164.791 39.802 165.103 41.258C165.415 42.714 165.883 43.988 166.507 45.08C167.131 46.172 167.937 47.03 168.925 47.654C169.965 48.226 171.187 48.512 172.591 48.512C175.243 48.512 177.219 47.55 178.519 45.626C179.819 43.702 180.469 40.66 180.469 36.5C180.469 32.912 179.871 30.026 178.675 27.842C177.479 25.606 175.451 24.488 172.591 24.488C170.095 24.488 168.145 25.424 166.741 27.296C165.337 29.168 164.635 32.236 164.635 36.5ZM193.448 17H198.83V14.816C198.83 9.876 199.87 6.314 201.95 4.13C204.03 1.894 207.046 0.776 210.998 0.776C215.158 0.776 218.616 1.27 221.372 2.258L219.422 10.37C218.226 9.954 217.16 9.694 216.224 9.59C215.34 9.434 214.404 9.356 213.416 9.356C212.376 9.356 211.544 9.512 210.92 9.824C210.348 10.136 209.906 10.63 209.594 11.306C209.334 11.93 209.152 12.736 209.048 13.724C208.996 14.66 208.97 15.752 208.97 17H217.55V25.58H208.97V56H198.83V25.58H193.448V17ZM217.431 17H222.813V9.668L232.953 6.782V17H242.469V25.58H232.953V40.556C232.953 43.26 233.213 45.21 233.733 46.406C234.305 47.55 235.345 48.122 236.853 48.122C237.893 48.122 238.777 48.018 239.505 47.81C240.285 47.602 241.143 47.29 242.079 46.874L243.873 54.674C242.469 55.35 240.831 55.922 238.959 56.39C237.087 56.858 235.189 57.092 233.265 57.092C229.677 57.092 227.025 56.182 225.309 54.362C223.645 52.49 222.813 49.448 222.813 45.236V25.58H217.431V17Z" fill="black" fill-opacity="0.1"/>
</svg>
