<svg width="272" height="180" viewBox="0 0 272 180" fill="none" xmlns="http://www.w3.org/2000/svg">
<g filter="url(#filter0_d)">
<path d="M120.067 161.613C103.708 162.007 90.1271 149.064 89.7336 132.704C89.3401 116.345 102.283 102.764 118.642 102.371C135.002 101.977 148.583 114.92 148.976 131.279C149.369 147.639 136.427 161.22 120.067 161.613ZM118.82 109.776C106.551 110.071 96.8438 120.257 97.1389 132.526C97.434 144.796 107.62 154.503 119.889 154.208C132.159 153.913 141.866 143.727 141.571 131.458C141.276 119.188 131.09 109.481 118.82 109.776Z" fill="#FCFCFC"/>
<path d="M140.077 101.373C115.345 101.968 94.8135 82.4007 94.2187 57.6685C93.6238 32.9364 113.191 12.4047 137.923 11.8099C162.655 11.215 183.187 30.7822 183.782 55.5143C184.377 80.2465 164.809 100.778 140.077 101.373ZM138.192 23.0053C119.643 23.4514 104.968 38.8501 105.414 57.3993C105.86 75.9484 121.259 90.6238 139.808 90.1776C158.357 89.7315 173.033 74.3328 172.586 55.7836C172.14 37.2345 156.742 22.5591 138.192 23.0053Z" fill="#FCFCFC"/>
<path d="M51.7816 123.429C31.0942 123.926 13.9204 107.559 13.4228 86.8719C12.9252 66.1845 29.2923 49.0107 49.9797 48.5131C70.6672 48.0155 87.841 64.3826 88.3386 85.07C88.8361 105.757 72.469 122.931 51.7816 123.429ZM50.205 57.8776C34.6894 58.2507 22.4141 71.1311 22.7873 86.6467C23.1604 102.162 36.0408 114.438 51.5564 114.064C67.0719 113.691 79.3473 100.811 78.9741 85.2953C78.6009 69.7797 65.7205 57.5044 50.205 57.8776Z" fill="#FCFCFC"/>
</g>
<g filter="url(#filter1_d)">
<path d="M41.9317 66.2149V99.6815H37.5623V66.2149H41.9317ZM81.0206 72.889C83.0693 72.889 84.8939 73.3211 86.4944 74.1854C88.0949 75.0177 89.3593 76.2821 90.2876 77.9786C91.2159 79.6751 91.68 81.7398 91.68 84.1726V99.6815H87.3586V84.7968C87.3586 82.1719 86.7024 80.1713 85.39 78.7949C84.1096 77.3864 82.3651 76.6822 80.1564 76.6822C77.8836 76.6822 76.0751 77.4184 74.7306 78.8909C73.3862 80.3313 72.714 82.428 72.714 85.1809V99.6815H68.3926V84.7968C68.3926 82.1719 67.7364 80.1713 66.424 78.7949C65.1436 77.3864 63.399 76.6822 61.1903 76.6822C58.9176 76.6822 57.109 77.4184 55.7646 78.8909C54.4202 80.3313 53.748 82.428 53.748 85.1809V99.6815H49.3786V73.3691H53.748V77.1623C54.6123 75.7859 55.7646 74.7296 57.2051 73.9933C58.6775 73.2571 60.2941 72.889 62.0546 72.889C64.2633 72.889 66.2159 73.3851 67.9125 74.3775C69.609 75.3698 70.8734 76.8262 71.7057 78.7468C72.4419 76.8903 73.6583 75.4498 75.3548 74.4255C77.0514 73.4011 78.94 72.889 81.0206 72.889ZM97.2149 86.4293C97.2149 83.7404 97.7591 81.3877 98.8474 79.371C99.9358 77.3224 101.424 75.7379 103.313 74.6175C105.233 73.4972 107.362 72.937 109.699 72.937C112.004 72.937 114.004 73.4332 115.701 74.4255C117.397 75.4178 118.662 76.6662 119.494 78.1707V73.3691H123.911V99.6815H119.494V94.7839C118.63 96.3204 117.333 97.6008 115.605 98.6252C113.908 99.6175 111.924 100.114 109.651 100.114C107.314 100.114 105.201 99.5374 103.313 98.3851C101.424 97.2327 99.9358 95.6162 98.8474 93.5355C97.7591 91.4549 97.2149 89.0861 97.2149 86.4293ZM119.494 86.4773C119.494 84.4927 119.094 82.7641 118.294 81.2917C117.493 79.8192 116.405 78.6988 115.029 77.9306C113.684 77.1303 112.196 76.7302 110.563 76.7302C108.931 76.7302 107.442 77.1143 106.098 77.8826C104.753 78.6508 103.681 79.7712 102.881 81.2436C102.08 82.7161 101.68 84.4447 101.68 86.4293C101.68 88.4459 102.08 90.2065 102.881 91.711C103.681 93.1834 104.753 94.3198 106.098 95.12C107.442 95.8883 108.931 96.2724 110.563 96.2724C112.196 96.2724 113.684 95.8883 115.029 95.12C116.405 94.3198 117.493 93.1834 118.294 91.711C119.094 90.2065 119.494 88.4619 119.494 86.4773ZM140.61 100.114C138.594 100.114 136.785 99.7775 135.184 99.1053C133.584 98.4011 132.32 97.4408 131.391 96.2244C130.463 94.976 129.951 93.5515 129.855 91.951H134.368C134.496 93.2635 135.104 94.3358 136.193 95.1681C137.313 96.0003 138.77 96.4165 140.562 96.4165C142.227 96.4165 143.539 96.0483 144.499 95.3121C145.46 94.5759 145.94 93.6476 145.94 92.5272C145.94 91.3749 145.428 90.5266 144.403 89.9824C143.379 89.4062 141.795 88.846 139.65 88.3019C137.697 87.7897 136.097 87.2776 134.848 86.7654C133.632 86.2212 132.576 85.437 131.679 84.4126C130.815 83.3563 130.383 81.9799 130.383 80.2833C130.383 78.9389 130.783 77.7065 131.583 76.5862C132.384 75.4658 133.52 74.5855 134.992 73.9453C136.465 73.2731 138.145 72.937 140.034 72.937C142.947 72.937 145.3 73.6732 147.092 75.1457C148.885 76.6182 149.845 78.6348 149.973 81.1956H145.604C145.508 79.8192 144.948 78.7148 143.923 77.8826C142.931 77.0503 141.586 76.6342 139.89 76.6342C138.321 76.6342 137.073 76.9703 136.145 77.6425C135.216 78.3147 134.752 79.195 134.752 80.2833C134.752 81.1476 135.024 81.8678 135.569 82.444C136.145 82.9882 136.849 83.4363 137.681 83.7884C138.546 84.1085 139.73 84.4767 141.234 84.8928C143.123 85.405 144.659 85.9171 145.844 86.4293C147.028 86.9094 148.037 87.6457 148.869 88.638C149.733 89.6303 150.181 90.9267 150.213 92.5272C150.213 93.9677 149.813 95.2641 149.013 96.4165C148.213 97.5688 147.076 98.4811 145.604 99.1533C144.163 99.7935 142.499 100.114 140.61 100.114ZM167.857 100.114C165.392 100.114 163.151 99.5534 161.135 98.4331C159.15 97.3127 157.582 95.7282 156.429 93.6796C155.309 91.5989 154.749 89.1982 154.749 86.4773C154.749 83.7884 155.325 81.4197 156.477 79.371C157.662 77.2904 159.262 75.7059 161.279 74.6175C163.295 73.4972 165.552 72.937 168.049 72.937C170.546 72.937 172.802 73.4972 174.819 74.6175C176.836 75.7059 178.42 77.2744 179.573 79.323C180.757 81.3717 181.349 83.7564 181.349 86.4773C181.349 89.1982 180.741 91.5989 179.525 93.6796C178.34 95.7282 176.724 97.3127 174.675 98.4331C172.626 99.5534 170.354 100.114 167.857 100.114ZM167.857 96.2724C169.425 96.2724 170.898 95.9043 172.274 95.1681C173.651 94.4318 174.755 93.3275 175.587 91.855C176.452 90.3825 176.884 88.59 176.884 86.4773C176.884 84.3646 176.468 82.5721 175.635 81.0996C174.803 79.6271 173.715 78.5388 172.37 77.8346C171.026 77.0983 169.569 76.7302 168.001 76.7302C166.4 76.7302 164.928 77.0983 163.584 77.8346C162.271 78.5388 161.215 79.6271 160.415 81.0996C159.614 82.5721 159.214 84.3646 159.214 86.4773C159.214 88.622 159.598 90.4306 160.367 91.903C161.167 93.3755 162.223 94.4798 163.536 95.2161C164.848 95.9203 166.288 96.2724 167.857 96.2724ZM197.802 76.9703H192.28V99.6815H187.91V76.9703H184.501V73.3691H187.91V71.4965C187.91 68.5516 188.663 66.4069 190.167 65.0625C191.704 63.6861 194.152 62.9978 197.513 62.9978V66.647C195.593 66.647 194.232 67.0311 193.432 67.7994C192.664 68.5356 192.28 69.768 192.28 71.4965V73.3691H197.802V76.9703ZM208.226 76.9703V92.4792C208.226 93.7596 208.498 94.6719 209.042 95.2161C209.586 95.7282 210.53 95.9843 211.875 95.9843H215.092V99.6815H211.155C208.722 99.6815 206.897 99.1213 205.681 98.001C204.465 96.8806 203.856 95.04 203.856 92.4792V76.9703H200.447V73.3691H203.856V66.743H208.226V73.3691H215.092V76.9703H208.226Z" fill="white"/>
<path d="M41.9317 66.2149H43.2655V64.8811H41.9317V66.2149ZM41.9317 99.6815V101.015H43.2655V99.6815H41.9317ZM37.5623 99.6815H36.2286V101.015H37.5623V99.6815ZM37.5623 66.2149V64.8811H36.2286V66.2149H37.5623ZM40.598 66.2149V99.6815H43.2655V66.2149H40.598ZM41.9317 98.3477H37.5623V101.015H41.9317V98.3477ZM38.8961 99.6815V66.2149H36.2286V99.6815H38.8961ZM37.5623 67.5486H41.9317V64.8811H37.5623V67.5486ZM86.4944 74.1854L85.8606 75.359L85.8698 75.3639L85.879 75.3687L86.4944 74.1854ZM90.2876 77.9786L89.1175 78.6188L90.2876 77.9786ZM91.68 99.6815V101.015H93.0138V99.6815H91.68ZM87.3586 99.6815H86.0249V101.015H87.3586V99.6815ZM85.39 78.7949L84.4031 79.692L84.4138 79.7038L84.4247 79.7153L85.39 78.7949ZM74.7306 78.8909L75.7057 79.8009L75.7107 79.7956L75.7156 79.7902L74.7306 78.8909ZM72.714 99.6815V101.015H74.0478V99.6815H72.714ZM68.3926 99.6815H67.0589V101.015H68.3926V99.6815ZM66.424 78.7949L65.4371 79.692L65.4478 79.7038L65.4587 79.7153L66.424 78.7949ZM55.7646 78.8909L56.7397 79.8009L56.7447 79.7956L56.7496 79.7902L55.7646 78.8909ZM53.748 99.6815V101.015H55.0817V99.6815H53.748ZM49.3786 99.6815H48.0448V101.015H49.3786V99.6815ZM49.3786 73.3691V72.0354H48.0448V73.3691H49.3786ZM53.748 73.3691H55.0817V72.0354H53.748V73.3691ZM53.748 77.1623H52.4142V81.7946L54.8775 77.8716L53.748 77.1623ZM57.2051 73.9933L56.6086 72.8003L56.5981 72.8057L57.2051 73.9933ZM67.9125 74.3775L67.2391 75.5287L67.9125 74.3775ZM71.7057 78.7468L70.4819 79.2772L71.7603 82.2273L72.9455 79.2385L71.7057 78.7468ZM75.3548 74.4255L76.0442 75.5673L75.3548 74.4255ZM81.0206 74.2227C82.8764 74.2227 84.4783 74.6125 85.8606 75.359L87.1281 73.0118C85.3094 72.0297 83.2622 71.5552 81.0206 71.5552V74.2227ZM85.879 75.3687C87.2277 76.0701 88.3066 77.1368 89.1175 78.6188L91.4576 77.3384C90.412 75.4274 88.962 73.9653 87.1097 73.0021L85.879 75.3687ZM89.1175 78.6188C89.9142 80.0747 90.3463 81.9069 90.3463 84.1726H93.0138C93.0138 81.5727 92.5176 79.2756 91.4576 77.3384L89.1175 78.6188ZM90.3463 84.1726V99.6815H93.0138V84.1726H90.3463ZM91.68 98.3477H87.3586V101.015H91.68V98.3477ZM88.6924 99.6815V84.7968H86.0249V99.6815H88.6924ZM88.6924 84.7968C88.6924 81.9612 87.9819 79.5804 86.3553 77.8745L84.4247 79.7153C85.423 80.7622 86.0249 82.3827 86.0249 84.7968H88.6924ZM86.3769 77.8977C84.8024 76.1657 82.6747 75.3484 80.1564 75.3484V78.0159C82.0555 78.0159 83.4168 78.6071 84.4031 79.692L86.3769 77.8977ZM80.1564 75.3484C77.5667 75.3484 75.3793 76.2023 73.7457 77.9916L75.7156 79.7902C76.7708 78.6345 78.2006 78.0159 80.1564 78.0159V75.3484ZM73.7556 77.9808C72.1027 79.7518 71.3802 82.225 71.3802 85.1809H74.0478C74.0478 82.631 74.6697 80.9109 75.7057 79.8009L73.7556 77.9808ZM71.3802 85.1809V99.6815H74.0478V85.1809H71.3802ZM72.714 98.3477H68.3926V101.015H72.714V98.3477ZM69.7264 99.6815V84.7968H67.0589V99.6815H69.7264ZM69.7264 84.7968C69.7264 81.9612 69.0159 79.5804 67.3893 77.8745L65.4587 79.7153C66.457 80.7622 67.0589 82.3827 67.0589 84.7968H69.7264ZM67.4109 77.8977C65.8364 76.1657 63.7086 75.3484 61.1903 75.3484V78.0159C63.0895 78.0159 64.4508 78.6071 65.4371 79.692L67.4109 77.8977ZM61.1903 75.3484C58.6007 75.3484 56.4133 76.2023 54.7797 77.9916L56.7496 79.7902C57.8048 78.6345 59.2346 78.0159 61.1903 78.0159V75.3484ZM54.7896 77.9808C53.1367 79.7518 52.4142 82.225 52.4142 85.1809H55.0817C55.0817 82.631 55.7037 80.9109 56.7397 79.8009L54.7896 77.9808ZM52.4142 85.1809V99.6815H55.0817V85.1809H52.4142ZM53.748 98.3477H49.3786V101.015H53.748V98.3477ZM50.7124 99.6815V73.3691H48.0448V99.6815H50.7124ZM49.3786 74.7029H53.748V72.0354H49.3786V74.7029ZM52.4142 73.3691V77.1623H55.0817V73.3691H52.4142ZM54.8775 77.8716C55.6146 76.6978 56.5868 75.8072 57.8121 75.181L56.5981 72.8057C54.9424 73.6519 53.6099 74.874 52.6184 76.4531L54.8775 77.8716ZM57.8016 75.1863C59.0761 74.549 60.4864 74.2227 62.0546 74.2227V71.5552C60.1017 71.5552 58.279 71.9652 56.6086 72.8004L57.8016 75.1863ZM62.0546 74.2227C64.0566 74.2227 65.7712 74.6702 67.2391 75.5287L68.5859 73.2262C66.6606 72.1001 64.4701 71.5552 62.0546 71.5552V74.2227ZM67.2391 75.5287C68.6744 76.3683 69.7546 77.5988 70.4819 79.2772L72.9295 78.2165C71.9922 76.0536 70.5436 74.3713 68.5859 73.2262L67.2391 75.5287ZM72.9455 79.2385C73.5752 77.6507 74.5994 76.4396 76.0442 75.5673L74.6655 73.2837C72.7172 74.46 71.3087 76.1298 70.4659 78.2552L72.9455 79.2385ZM76.0442 75.5673C77.5222 74.6749 79.1703 74.2227 81.0206 74.2227V71.5552C78.7096 71.5552 76.5806 72.1274 74.6655 73.2837L76.0442 75.5673ZM98.8474 79.371L100.021 80.0045L100.025 79.9968L98.8474 79.371ZM103.313 74.6175L102.641 73.4654L102.632 73.4704L103.313 74.6175ZM115.701 74.4255L115.027 75.5768L115.701 74.4255ZM119.494 78.1707L118.327 78.8163L120.828 78.1707H119.494ZM119.494 73.3691V72.0354H118.16V73.3691H119.494ZM123.911 73.3691H125.245V72.0354H123.911V73.3691ZM123.911 99.6815V101.015H125.245V99.6815H123.911ZM119.494 99.6815H118.16V101.015H119.494V99.6815ZM119.494 94.7839H120.828V89.6923L118.331 94.13L119.494 94.7839ZM115.605 98.6252L116.278 99.7765L116.285 99.7726L115.605 98.6252ZM103.313 98.3851L102.618 99.5236L103.313 98.3851ZM98.8474 93.5355L100.029 92.9173L98.8474 93.5355ZM115.029 77.9306L114.346 79.0767L114.362 79.0862L114.379 79.0952L115.029 77.9306ZM106.098 77.8826L105.436 76.7245L106.098 77.8826ZM102.881 81.2436L104.053 81.8805V81.8805L102.881 81.2436ZM102.881 91.711L101.703 92.3373L101.709 92.3478L102.881 91.711ZM106.098 95.12L105.416 96.2661L105.426 96.2722L105.436 96.2781L106.098 95.12ZM115.029 95.12L115.69 96.2781L115.699 96.2731L115.029 95.12ZM118.294 91.711L119.465 92.3479L119.471 92.3373L118.294 91.711ZM98.5487 86.4293C98.5487 83.9232 99.0547 81.7953 100.021 80.0045L97.6737 78.7376C96.4635 80.9801 95.8811 83.5577 95.8811 86.4293H98.5487ZM100.025 79.9968C101.006 78.1515 102.327 76.753 103.993 75.7646L102.632 73.4704C100.521 74.7228 98.866 76.4933 97.6696 78.7453L100.025 79.9968ZM103.985 75.7696C105.691 74.7744 107.586 74.2708 109.699 74.2708V71.6032C107.138 71.6032 104.776 72.22 102.641 73.4655L103.985 75.7696ZM109.699 74.2708C111.808 74.2708 113.568 74.7232 115.027 75.5768L116.374 73.2742C114.44 72.1432 112.199 71.6032 109.699 71.6032V74.2708ZM115.027 75.5768C116.547 76.4656 117.627 77.5503 118.327 78.8163L120.661 77.525C119.697 75.7821 118.248 74.37 116.374 73.2742L115.027 75.5768ZM120.828 78.1707V73.3691H118.16V78.1707H120.828ZM119.494 74.7029H123.911V72.0354H119.494V74.7029ZM122.578 73.3691V99.6815H125.245V73.3691H122.578ZM123.911 98.3477H119.494V101.015H123.911V98.3477ZM120.828 99.6815V94.7839H118.16V99.6815H120.828ZM118.331 94.13C117.597 95.4354 116.481 96.5558 114.925 97.4777L116.285 99.7726C118.186 98.6459 119.662 97.2055 120.656 95.4378L118.331 94.13ZM114.931 97.4739C113.469 98.3291 111.724 98.7799 109.651 98.7799V101.447C112.123 101.447 114.347 100.906 116.278 99.7764L114.931 97.4739ZM109.651 98.7799C107.545 98.7799 105.675 98.2639 104.008 97.2465L102.618 99.5236C104.728 100.811 107.083 101.447 109.651 101.447V98.7799ZM104.008 97.2465C102.338 96.228 101.013 94.7973 100.029 92.9173L97.6656 94.1537C98.8589 96.4351 100.51 98.2374 102.618 99.5236L104.008 97.2465ZM100.029 92.9173C99.0532 91.0513 98.5487 88.8994 98.5487 86.4293H95.8811C95.8811 89.2728 96.465 91.8585 97.6656 94.1537L100.029 92.9173ZM120.828 86.4773C120.828 84.3112 120.39 82.3558 119.465 80.6548L117.122 81.9285C117.798 83.1724 118.16 84.6742 118.16 86.4773H120.828ZM119.465 80.6548C118.553 78.9752 117.29 77.6651 115.679 76.766L114.379 79.0952C115.52 79.7326 116.434 80.6632 117.122 81.9285L119.465 80.6548ZM115.711 76.7845C114.151 75.856 112.425 75.3965 110.563 75.3965V78.064C111.966 78.064 113.217 78.4047 114.346 79.0767L115.711 76.7845ZM110.563 75.3965C108.712 75.3965 106.993 75.8348 105.436 76.7245L106.759 79.0406C107.891 78.3938 109.15 78.064 110.563 78.064V75.3965ZM105.436 76.7245C103.859 77.6258 102.617 78.9352 101.709 80.6068L104.053 81.8805C104.745 80.6072 105.648 79.6758 106.759 79.0406L105.436 76.7245ZM101.709 80.6068C100.784 82.3078 100.347 84.2632 100.347 86.4293H103.014C103.014 84.6261 103.377 83.1244 104.053 81.8805L101.709 80.6068ZM100.347 86.4293C100.347 88.6243 100.783 90.6075 101.703 92.3373L104.058 91.0846C103.378 89.8054 103.014 88.2675 103.014 86.4293H100.347ZM101.709 92.3478C102.615 94.0154 103.85 95.3345 105.416 96.2661L106.78 93.974C105.656 93.3051 104.747 92.3514 104.053 91.0741L101.709 92.3478ZM105.436 96.2781C106.993 97.1678 108.712 97.6062 110.563 97.6062V94.9386C109.15 94.9386 107.891 94.6088 106.759 93.962L105.436 96.2781ZM110.563 97.6062C112.415 97.6062 114.133 97.1678 115.69 96.2781L114.367 93.962C113.235 94.6088 111.977 94.9386 110.563 94.9386V97.6062ZM115.699 96.2731C117.298 95.3434 118.555 94.0233 119.465 92.3478L117.122 91.0741C116.432 92.3436 115.512 93.2962 114.358 93.967L115.699 96.2731ZM119.471 92.3373C120.39 90.6105 120.828 88.6443 120.828 86.4773H118.16C118.16 88.2796 117.798 89.8025 117.116 91.0846L119.471 92.3373ZM135.184 99.1053L134.647 100.326L134.658 100.331L134.668 100.335L135.184 99.1053ZM131.391 96.2244L130.321 97.0202L130.326 97.0269L130.331 97.0335L131.391 96.2244ZM129.855 91.951V90.6173H128.439L128.523 92.0309L129.855 91.951ZM134.368 91.951L135.696 91.8215L135.578 90.6173H134.368V91.951ZM136.193 95.1681L135.383 96.2275L135.39 96.2332L135.397 96.2387L136.193 95.1681ZM144.403 89.9824L143.749 91.1449L143.763 91.1527L143.778 91.1603L144.403 89.9824ZM139.65 88.3019L139.311 89.592L139.322 89.5947L139.65 88.3019ZM134.848 86.7654L134.304 87.9829L134.323 87.9914L134.342 87.9993L134.848 86.7654ZM131.679 84.4126L130.647 85.2572L130.661 85.2743L130.676 85.2909L131.679 84.4126ZM131.583 76.5862L130.498 75.8109L131.583 76.5862ZM134.992 73.9453L135.524 75.1685L135.535 75.1636L135.546 75.1586L134.992 73.9453ZM149.973 81.1956V82.5294H151.375L151.305 81.129L149.973 81.1956ZM145.604 81.1956L144.273 81.2885L144.36 82.5294H145.604V81.1956ZM143.923 77.8826L143.066 78.9045L143.074 78.9112L143.082 78.9177L143.923 77.8826ZM136.145 77.6425L135.362 76.5622L136.145 77.6425ZM135.569 82.444L134.599 83.3598L134.625 83.3875L134.653 83.4137L135.569 82.444ZM137.681 83.7884L137.162 85.0168L137.19 85.0286L137.218 85.0392L137.681 83.7884ZM141.234 84.8928L140.879 86.1783L140.885 86.1801L141.234 84.8928ZM145.844 86.4293L145.314 87.6535L145.329 87.6596L145.343 87.6653L145.844 86.4293ZM148.869 88.638L147.847 89.4951L147.855 89.5046L147.863 89.514L148.869 88.638ZM150.213 92.5272H151.547V92.5139L151.547 92.5005L150.213 92.5272ZM149.013 96.4165L147.917 95.6557H147.917L149.013 96.4165ZM145.604 99.1533L146.145 100.372L146.158 100.367L145.604 99.1533ZM140.61 98.7799C138.743 98.7799 137.114 98.4689 135.701 97.8756L134.668 100.335C136.456 101.086 138.445 101.447 140.61 101.447V98.7799ZM135.722 97.8845C134.298 97.258 133.225 96.4282 132.452 95.4152L130.331 97.0335C131.415 98.4534 132.87 99.5442 134.647 100.326L135.722 97.8845ZM132.462 95.4285C131.693 94.395 131.267 93.2211 131.186 91.8712L128.523 92.0309C128.634 93.882 129.233 95.557 130.321 97.0202L132.462 95.4285ZM129.855 93.2848H134.368V90.6173H129.855V93.2848ZM133.041 92.0805C133.206 93.7772 134.013 95.1804 135.383 96.2275L137.003 94.1086C136.196 93.4912 135.786 92.7497 135.696 91.8215L133.041 92.0805ZM135.397 96.2387C136.806 97.2849 138.565 97.7502 140.562 97.7502V95.0827C138.974 95.0827 137.82 94.7157 136.988 94.0974L135.397 96.2387ZM140.562 97.7502C142.412 97.7502 144.044 97.3417 145.311 96.3706L143.688 94.2536C143.034 94.755 142.042 95.0827 140.562 95.0827V97.7502ZM145.311 96.3706C146.57 95.4053 147.274 94.0993 147.274 92.5272H144.606C144.606 93.1958 144.349 93.7464 143.688 94.2536L145.311 96.3706ZM147.274 92.5272C147.274 91.7482 147.098 91.0014 146.698 90.3374C146.297 89.6738 145.718 89.1703 145.029 88.8046L143.778 91.1603C144.114 91.3387 144.302 91.5314 144.414 91.7161C144.525 91.9003 144.606 92.1538 144.606 92.5272H147.274ZM145.057 88.8199C143.877 88.1559 142.155 87.5615 139.978 87.0091L139.322 89.5947C141.434 90.1306 142.881 90.6566 143.749 91.1449L145.057 88.8199ZM139.988 87.0118C138.068 86.508 136.529 86.0131 135.355 85.5314L134.342 87.9993C135.665 88.542 137.327 89.0714 139.311 89.592L139.988 87.0118ZM135.393 85.5479C134.356 85.0841 133.455 84.417 132.683 83.5344L130.676 85.2909C131.696 86.4569 132.908 87.3584 134.304 87.9829L135.393 85.5479ZM132.712 83.5681C132.086 82.8034 131.717 81.7489 131.717 80.2833H129.049C129.049 82.2108 129.544 83.9092 130.647 85.2572L132.712 83.5681ZM131.717 80.2833C131.717 79.224 132.026 78.2614 132.669 77.3614L130.498 75.8109C129.54 77.1517 129.049 78.6538 129.049 80.2833H131.717ZM132.669 77.3614C133.306 76.4684 134.236 75.7285 135.524 75.1685L134.461 72.7222C132.804 73.4425 131.461 74.4632 130.498 75.8109L132.669 77.3614ZM135.546 75.1586C136.818 74.5779 138.305 74.2708 140.034 74.2708V71.6032C137.986 71.6032 136.111 71.9683 134.438 72.732L135.546 75.1586ZM140.034 74.2708C142.719 74.2708 144.747 74.9457 146.246 76.1763L147.939 74.1151C145.852 72.4007 143.175 71.6032 140.034 71.6032V74.2708ZM146.246 76.1763C147.715 77.3836 148.53 79.0328 148.641 81.2622L151.305 81.129C151.161 78.2368 150.054 75.8527 147.939 74.1151L146.246 76.1763ZM149.973 79.8619H145.604V82.5294H149.973V79.8619ZM146.934 81.1028C146.814 79.3769 146.089 77.9242 144.764 76.8474L143.082 78.9177C143.806 79.5055 144.202 80.2615 144.273 81.2885L146.934 81.1028ZM144.78 76.8607C143.482 75.7716 141.801 75.3004 139.89 75.3004V77.9679C141.371 77.9679 142.38 78.329 143.066 78.9045L144.78 76.8607ZM139.89 75.3004C138.142 75.3004 136.589 75.6743 135.362 76.5622L136.927 78.7228C137.557 78.2662 138.501 77.9679 139.89 77.9679V75.3004ZM135.362 76.5622C134.109 77.4696 133.419 78.7413 133.419 80.2833H136.086C136.086 79.6487 136.323 79.1598 136.927 78.7228L135.362 76.5622ZM133.419 80.2833C133.419 81.4545 133.799 82.5126 134.599 83.3598L136.538 81.5282C136.25 81.2231 136.086 80.8407 136.086 80.2833H133.419ZM134.653 83.4137C135.36 84.0812 136.203 84.6113 137.162 85.0168L138.201 82.5601C137.495 82.2613 136.93 81.8952 136.484 81.4744L134.653 83.4137ZM137.218 85.0392C138.134 85.3783 139.359 85.7579 140.879 86.1783L141.59 83.6073C140.101 83.1954 138.957 82.8388 138.144 82.5377L137.218 85.0392ZM140.885 86.1801C142.74 86.6831 144.21 87.176 145.314 87.6535L146.373 85.2051C145.109 84.6583 143.506 84.1268 141.583 83.6055L140.885 86.1801ZM145.343 87.6653C146.322 88.0625 147.153 88.6674 147.847 89.4951L149.891 87.7809C148.92 86.6239 147.734 85.7564 146.345 85.1932L145.343 87.6653ZM147.863 89.514C148.48 90.2223 148.853 91.1958 148.88 92.5539L151.547 92.5005C151.51 90.6576 150.986 89.0383 149.875 87.762L147.863 89.514ZM148.879 92.5272C148.879 93.7035 148.558 94.733 147.917 95.6557L150.108 97.1772C151.068 95.7952 151.547 94.2319 151.547 92.5272H148.879ZM147.917 95.6557C147.274 96.5827 146.338 97.3517 145.05 97.94L146.158 100.367C147.814 99.6105 149.152 98.5549 150.108 97.1772L147.917 95.6557ZM145.062 97.9345C143.822 98.4854 142.348 98.7799 140.61 98.7799V101.447C142.649 101.447 144.504 101.102 146.145 100.372L145.062 97.9345ZM161.135 98.4331L160.479 99.5946L160.487 99.599L161.135 98.4331ZM156.429 93.6796L155.255 94.3119L155.261 94.3228L155.267 94.3335L156.429 93.6796ZM156.477 79.371L155.318 78.7112L155.315 78.7172L156.477 79.371ZM161.279 74.6175L161.912 75.7913L161.919 75.7874L161.927 75.7834L161.279 74.6175ZM174.819 74.6175L174.171 75.7834L174.179 75.7874L174.186 75.7913L174.819 74.6175ZM179.573 79.323L178.41 79.9769L178.414 79.9838L178.418 79.9906L179.573 79.323ZM179.525 93.6796L178.373 93.0064L178.37 93.012L179.525 93.6796ZM174.675 98.4331L175.315 99.6033L174.675 98.4331ZM175.587 91.855L174.437 91.1799L174.432 91.1892L174.426 91.1987L175.587 91.855ZM172.37 77.8346L171.73 79.0044L171.741 79.0103L171.751 79.016L172.37 77.8346ZM163.584 77.8346L164.214 79.0099L164.224 79.0044L163.584 77.8346ZM160.415 81.0996L161.586 81.7365L160.415 81.0996ZM160.367 91.903L159.184 92.52L159.189 92.53L159.195 92.5399L160.367 91.903ZM163.536 95.2161L162.883 96.3793L162.894 96.3854L162.905 96.3913L163.536 95.2161ZM167.857 98.7799C165.603 98.7799 163.587 98.2699 161.783 97.2672L160.487 99.599C162.715 100.837 165.181 101.447 167.857 101.447V98.7799ZM161.79 97.2716C160.025 96.2749 158.629 94.869 157.592 93.0257L155.267 94.3335C156.535 96.5874 158.276 98.3506 160.479 99.5946L161.79 97.2716ZM157.604 93.0472C156.603 91.1886 156.083 89.0111 156.083 86.4773H153.415C153.415 89.3852 154.015 92.0093 155.255 94.3119L157.604 93.0472ZM156.083 86.4773C156.083 83.9841 156.615 81.8467 157.64 80.0249L155.315 78.7172C154.035 80.9927 153.415 83.5928 153.415 86.4773H156.083ZM157.636 80.0309C158.703 78.1572 160.126 76.7555 161.912 75.7913L160.645 73.4438C158.399 74.6563 156.62 76.4236 155.318 78.7112L157.636 80.0309ZM161.927 75.7834C163.729 74.7821 165.76 74.2708 168.049 74.2708V71.6032C165.345 71.6032 162.862 72.2122 160.631 73.4516L161.927 75.7834ZM168.049 74.2708C170.338 74.2708 172.369 74.7821 174.171 75.7834L175.467 73.4516C173.236 72.2122 170.753 71.6032 168.049 71.6032V74.2708ZM174.186 75.7913C175.974 76.7566 177.378 78.1421 178.41 79.9769L180.735 78.6691C179.462 76.4066 177.697 74.6551 175.453 73.4438L174.186 75.7913ZM178.418 79.9906C179.468 81.8076 180.015 83.9552 180.015 86.4773H182.683C182.683 83.5577 182.046 80.9358 180.727 78.6555L178.418 79.9906ZM180.015 86.4773C180.015 88.9927 179.455 91.1553 178.373 93.0064L180.676 94.3527C182.027 92.0425 182.683 89.4036 182.683 86.4773H180.015ZM178.37 93.012C177.306 94.8521 175.866 96.2614 174.035 97.2629L175.315 99.6033C177.581 98.364 179.374 96.6043 180.679 94.3471L178.37 93.012ZM174.035 97.2629C172.196 98.2685 170.146 98.7799 167.857 98.7799V101.447C170.561 101.447 173.057 100.838 175.315 99.6033L174.035 97.2629ZM167.857 97.6062C169.644 97.6062 171.332 97.1844 172.903 96.3441L171.645 93.992C170.463 94.6242 169.207 94.9386 167.857 94.9386V97.6062ZM172.903 96.3441C174.522 95.4786 175.803 94.1848 176.749 92.5113L174.426 91.1987C173.708 92.4701 172.78 93.385 171.645 93.992L172.903 96.3441ZM176.738 92.5302C177.748 90.8096 178.218 88.7714 178.218 86.4773H175.55C175.55 88.4085 175.156 89.9555 174.437 91.1799L176.738 92.5302ZM178.218 86.4773C178.218 84.1912 177.767 82.16 176.797 80.4433L174.474 81.7559C175.168 82.9841 175.55 84.5381 175.55 86.4773H178.218ZM176.797 80.4433C175.853 78.7737 174.587 77.4899 172.989 76.6531L171.751 79.016C172.843 79.5877 173.753 80.4806 174.474 81.7559L176.797 80.4433ZM173.011 76.6647C171.465 75.8184 169.788 75.3965 168.001 75.3965V78.064C169.351 78.064 170.586 78.3783 171.73 79.0044L173.011 76.6647ZM168.001 75.3965C166.187 75.3965 164.493 75.8161 162.943 76.6647L164.224 79.0044C165.363 78.3805 166.614 78.064 168.001 78.064V75.3965ZM162.953 76.6593C161.384 77.5014 160.151 78.7914 159.243 80.4627L161.586 81.7365C162.279 80.4628 163.159 79.5762 164.214 79.0098L162.953 76.6593ZM159.243 80.4627C158.312 82.1751 157.88 84.199 157.88 86.4773H160.548C160.548 84.5303 160.917 82.969 161.586 81.7365L159.243 80.4627ZM157.88 86.4773C157.88 88.7761 158.292 90.8097 159.184 92.52L161.549 91.2861C160.905 90.0514 160.548 88.4678 160.548 86.4773H157.88ZM159.195 92.5399C160.101 94.2074 161.327 95.5064 162.883 96.3793L164.188 94.0528C163.119 93.4533 162.233 92.5436 161.538 91.2661L159.195 92.5399ZM162.905 96.3913C164.422 97.2052 166.08 97.6062 167.857 97.6062V94.9386C166.496 94.9386 165.274 94.6354 164.166 94.0408L162.905 96.3913ZM197.802 76.9703V78.304H199.135V76.9703H197.802ZM192.28 76.9703V75.6365H190.946V76.9703H192.28ZM192.28 99.6815V101.015H193.614V99.6815H192.28ZM187.91 99.6815H186.577V101.015H187.91V99.6815ZM187.91 76.9703H189.244V75.6365H187.91V76.9703ZM184.501 76.9703H183.168V78.304H184.501V76.9703ZM184.501 73.3691V72.0354H183.168V73.3691H184.501ZM187.91 73.3691V74.7029H189.244V73.3691H187.91ZM190.167 65.0625L191.056 66.057L191.057 66.0559L190.167 65.0625ZM197.513 62.9978H198.847V61.6641H197.513V62.9978ZM197.513 66.647V67.9808H198.847V66.647H197.513ZM193.432 67.7994L194.355 68.7623L194.356 68.7615L193.432 67.7994ZM192.28 73.3691H190.946V74.7029H192.28V73.3691ZM197.802 73.3691H199.135V72.0354H197.802V73.3691ZM197.802 75.6365H192.28V78.304H197.802V75.6365ZM190.946 76.9703V99.6815H193.614V76.9703H190.946ZM192.28 98.3477H187.91V101.015H192.28V98.3477ZM189.244 99.6815V76.9703H186.577V99.6815H189.244ZM187.91 75.6365H184.501V78.304H187.91V75.6365ZM185.835 76.9703V73.3691H183.168V76.9703H185.835ZM184.501 74.7029H187.91V72.0354H184.501V74.7029ZM189.244 73.3691V71.4965H186.577V73.3691H189.244ZM189.244 71.4965C189.244 68.7539 189.944 67.0503 191.056 66.057L189.278 64.068C187.381 65.7635 186.577 68.3493 186.577 71.4965H189.244ZM191.057 66.0559C192.235 65.0006 194.287 64.3316 197.513 64.3316V61.6641C194.018 61.6641 191.172 62.3715 189.277 64.0691L191.057 66.0559ZM196.18 62.9978V66.647H198.847V62.9978H196.18ZM197.513 65.3133C195.481 65.3133 193.685 65.7073 192.508 66.8372L194.356 68.7615C194.779 68.3549 195.704 67.9808 197.513 67.9808V65.3133ZM192.509 66.8364C191.354 67.9433 190.946 69.6229 190.946 71.4965H193.614C193.614 69.9131 193.974 69.1279 194.355 68.7623L192.509 66.8364ZM190.946 71.4965V73.3691H193.614V71.4965H190.946ZM192.28 74.7029H197.802V72.0354H192.28V74.7029ZM196.468 73.3691V76.9703H199.135V73.3691H196.468ZM208.226 76.9703V75.6365H206.892V76.9703H208.226ZM209.042 95.2161L208.099 96.1592L208.113 96.1735L208.128 96.1873L209.042 95.2161ZM215.092 95.9843H216.426V94.6506H215.092V95.9843ZM215.092 99.6815V101.015H216.426V99.6815H215.092ZM203.856 76.9703H205.19V75.6365H203.856V76.9703ZM200.447 76.9703H199.114V78.304H200.447V76.9703ZM200.447 73.3691V72.0354H199.114V73.3691H200.447ZM203.856 73.3691V74.7029H205.19V73.3691H203.856ZM203.856 66.743V65.4093H202.523V66.743H203.856ZM208.226 66.743H209.559V65.4093H208.226V66.743ZM208.226 73.3691H206.892V74.7029H208.226V73.3691ZM215.092 73.3691H216.426V72.0354H215.092V73.3691ZM215.092 76.9703V78.304H216.426V76.9703H215.092ZM206.892 76.9703V92.4792H209.559V76.9703H206.892ZM206.892 92.4792C206.892 93.8912 207.182 95.2425 208.099 96.1592L209.985 94.273C209.813 94.1013 209.559 93.6281 209.559 92.4792H206.892ZM208.128 96.1873C209.054 97.0588 210.437 97.3181 211.875 97.3181V94.6506C210.624 94.6506 210.118 94.3976 209.956 94.2448L208.128 96.1873ZM211.875 97.3181H215.092V94.6506H211.875V97.3181ZM213.758 95.9843V99.6815H216.426V95.9843H213.758ZM215.092 98.3477H211.155V101.015H215.092V98.3477ZM211.155 98.3477C208.902 98.3477 207.46 97.8266 206.585 97.0199L204.777 98.982C206.334 100.416 208.542 101.015 211.155 101.015V98.3477ZM206.585 97.0199C205.762 96.2624 205.19 94.8693 205.19 92.4792H202.523C202.523 95.2107 203.167 97.4988 204.777 98.982L206.585 97.0199ZM205.19 92.4792V76.9703H202.523V92.4792H205.19ZM203.856 75.6365H200.447V78.304H203.856V75.6365ZM201.781 76.9703V73.3691H199.114V76.9703H201.781ZM200.447 74.7029H203.856V72.0354H200.447V74.7029ZM205.19 73.3691V66.743H202.523V73.3691H205.19ZM203.856 68.0768H208.226V65.4093H203.856V68.0768ZM206.892 66.743V73.3691H209.559V66.743H206.892ZM208.226 74.7029H215.092V72.0354H208.226V74.7029ZM213.758 73.3691V76.9703H216.426V73.3691H213.758ZM215.092 75.6365H208.226V78.304H215.092V75.6365Z" fill="white"/>
</g>
<defs>
<filter id="filter0_d" x="0.491963" y="3.51486" width="196.397" height="175.653" filterUnits="userSpaceOnUse" color-interpolation-filters="sRGB">
<feFlood flood-opacity="0" result="BackgroundImageFix"/>
<feColorMatrix in="SourceAlpha" type="matrix" values="0 0 0 0 0 0 0 0 0 0 0 0 0 0 0 0 0 0 127 0"/>
<feOffset dy="4.81195"/>
<feGaussianBlur stdDeviation="6.01494"/>
<feColorMatrix type="matrix" values="0 0 0 0 0.716667 0 0 0 0 0.716667 0 0 0 0 0.716667 0 0 0 0.25 0"/>
<feBlend mode="normal" in2="BackgroundImageFix" result="effect1_dropShadow"/>
<feBlend mode="normal" in="SourceGraphic" in2="effect1_dropShadow" result="shape"/>
</filter>
<filter id="filter1_d" x="22.891" y="53.6616" width="206.872" height="66.4584" filterUnits="userSpaceOnUse" color-interpolation-filters="sRGB">
<feFlood flood-opacity="0" result="BackgroundImageFix"/>
<feColorMatrix in="SourceAlpha" type="matrix" values="0 0 0 0 0 0 0 0 0 0 0 0 0 0 0 0 0 0 127 0"/>
<feOffset dy="5.33503"/>
<feGaussianBlur stdDeviation="6.66878"/>
<feColorMatrix type="matrix" values="0 0 0 0 0.1625 0 0 0 0 0.1625 0 0 0 0 0.1625 0 0 0 0.49 0"/>
<feBlend mode="normal" in2="BackgroundImageFix" result="effect1_dropShadow"/>
<feBlend mode="normal" in="SourceGraphic" in2="effect1_dropShadow" result="shape"/>
</filter>
</defs>
</svg>
